<svg width="48" height="48" viewBox="0 0 48 48" fill="none" xmlns="http://www.w3.org/2000/svg">
  <!-- Gradient Definition -->
  <defs>
    <linearGradient id="logoGradient" x1="0" y1="0" x2="48" y2="48">
      <stop offset="0%" stop-color="#9333EA" />
      <stop offset="100%" stop-color="#DB2777" />
    </linearGradient>
    
    <!-- Neural Network Pattern -->
    <pattern id="neuralPattern" x="0" y="0" width="48" height="48" patternUnits="userSpaceOnUse">
      <circle cx="12" cy="12" r="1.5" fill="#ffffff" fill-opacity="0.3"/>
      <circle cx="36" cy="12" r="1.5" fill="#ffffff" fill-opacity="0.3"/>
      <circle cx="24" cy="24" r="1.5" fill="#ffffff" fill-opacity="0.3"/>
      <circle cx="12" cy="36" r="1.5" fill="#ffffff" fill-opacity="0.3"/>
      <circle cx="36" cy="36" r="1.5" fill="#ffffff" fill-opacity="0.3"/>
      <line x1="12" y1="12" x2="24" y2="24" stroke="#ffffff" stroke-opacity="0.2" stroke-width="0.5"/>
      <line x1="36" y1="12" x2="24" y2="24" stroke="#ffffff" stroke-opacity="0.2" stroke-width="0.5"/>
      <line x1="12" y1="36" x2="24" y2="24" stroke="#ffffff" stroke-opacity="0.2" stroke-width="0.5"/>
      <line x1="36" y1="36" x2="24" y2="24" stroke="#ffffff" stroke-opacity="0.2" stroke-width="0.5"/>
    </pattern>
  </defs>
  
  <!-- Main Circle Background -->
  <circle cx="24" cy="24" r="22" fill="url(#logoGradient)"/>
  
  <!-- Neural Network Overlay -->
  <circle cx="24" cy="24" r="22" fill="url(#neuralPattern)"/>
  
  <!-- Stylized 'G' Letter -->
  <path d="M32 24c0 4.4-3.6 8-8 8s-8-3.6-8-8 3.6-8 8-8c2.1 0 4 0.8 5.4 2.2" stroke="white" stroke-width="3" stroke-linecap="round" fill="none"/>
  <path d="M32 20v4h-4" stroke="white" stroke-width="3" stroke-linecap="round" stroke-linejoin="round" fill="none"/>
</svg>